# AST/ASF file generated using VICON BodyLanguage
# -----------------------------------------------
:version 1.10
:name VICON
:units
  mass 1.0
  length 0.45
  angle deg
:documentation
   .ast/.asf automatically generated from VICON data using
   VICON BodyBuilder and BodyLanguage model FoxedUp or BRILLIANT.MOD
:root
   order TX TY TZ RX RY RZ
   axis XYZ
   position 0 0 0  
   orientation 0 0 0 
:bonedata
  begin
     id 1 
     name lhipjoint
     direction 0.70531 -0.63749 0.310071 
     length 2.59589 
     axis 0 0 0  XYZ
  end
  begin
     id 2 
     name lfemur
     direction 0.34202 -0.939693 0  
     length 6.19797  
     axis 0 0 20  XYZ
    dof rx ry rz
    limits (-160.0 20.0)
           (-70.0 70.0)
           (-60.0 70.0)
  end
  begin
     id 3 
     name ltibia
     direction 0.34202 -0.939693 0   
     length 7.80054   
     axis 0 0 20   XYZ
    dof rx
    limits (-10.0 170.0)
  end
  begin
     id 4 
     name lfoot
     direction 0.0828572 -0.227648 0.970212   
     length 1.88124   
     axis -90 7.62852e-016 20   XYZ
    dof rx rz
    limits (-45.0 90.0)
           (-70.0 20.0)
  end
  begin
     id 5 
     name ltoes
     direction 1.53544e-011 -4.219e-011 1   
     length 0.948015   
     axis -90 7.62852e-016 20   XYZ
    dof rx
    limits (-90.0 20.0)
  end
  begin
     id 6 
     name rhipjoint
     direction -0.730062 -0.614543 0.29891   
     length 2.69282  
     axis 0 0 0  XYZ 
  end
  begin
     id 7 
     name rfemur
     direction -0.34202 -0.939693 0   
     length 5.86298   
     axis 0 0 -20   XYZ
    dof rx ry rz
    limits (-160.0 20.0)
           (-70.0 70.0)
           (-70.0 60.0)
  end
  begin
     id 8 
     name rtibia
     direction -0.34202 -0.939693 0   
     length 7.72374   
     axis 0 0 -20   XYZ
    dof rx
    limits (-10.0 170.0)
 end
 begin
     id 9 
     name rfoot
     direction -0.0967421 -0.265797 0.959163   
     length 2.02368  
     axis -90 -7.62852e-016 -20   XYZ
    dof rx rz
    limits (-45.0 90.0)
           (-20.0 70.0)
  end
  begin
     id 10 
     name rtoes
     direction -1.53524e-011 -4.21768e-011 1   
     length 1.01373   
     axis -90 -7.62852e-016 -20   XYZ
    dof rx
    limits (-90.0 20.0)
  end
  begin
     id 11 
     name lowerback
     direction 0.00561702 0.992801 -0.119643   
     length 2.02816   
     axis 0 0 0   XYZ
    dof rx ry rz
    limits (-20.0 45.0)
           (-30.0 30.0)
           (-30.0 30.0)
  end
  begin
     id 12 
     name upperback
     direction 0.00155544 0.995735 -0.0922509   
     length 2.02265   
     axis 0 0 0   XYZ
    dof rx ry rz
    limits (-20.0 45.0)
           (-30.0 30.0)
           (-30.0 30.0)
  end
  begin
     id 13 
     name thorax
     direction -0.000937535 0.999317 -0.0369292   
     length 2.04823   
     axis 0 0 0   XYZ
    dof rx ry rz
    limits (-20.0 45.0)
           (-30.0 30.0)
           (-30.0 30.0)
  end
  begin
     id 14 
     name lowerneck
     direction -0.0813151 0.981659 0.172436   
     length 1.8875   
     axis 0 0 0   XYZ
    dof rx ry rz
    limits (-20.0 45.0)
           (-30.0 30.0)
           (-30.0 30.0)
  end
  begin
     id 15 
     name upperneck
     direction 0.119359 0.955672 -0.269157   
     length 1.92801   
     axis 0 0 0   XYZ
    dof rx ry rz
    limits (-20.0 45.0)
           (-30.0 30.0)
           (-30.0 30.0)
  end
  begin
     id 16
     name head
     direction 0.0421007 0.992672 -0.113268  
     length 1.95809  
     axis 0 0 0   XYZ
    dof rx ry rz
    limits (-20.0 45.0)
           (-30.0 30.0)
           (-30.0 30.0)
  end
  begin
     id 17 
     name lclavicle
     direction 0.944093 0.32865 -0.0260136  
     length 3.84992  
     axis 0 0 0   XYZ
    dof ry rz
    limits (-20.0 10.0)
           (0.0 20.0)
  end
  begin
     id 18 
     name lhumerus
     direction 1 -4.48979e-011 -1.27712e-029   
     length 5.53593   
     axis 180 -30 -90   XYZ
    dof rx ry rz
    limits (-60.0 90.0)
           (-90.0 90.0)
           (-90.0 90.0)
  end
  begin
     id 19
     name lradius
     direction 1 -4.48966e-011 1.00051e-028   
     length 3.13345   
     axis 180 -30 -90   XYZ
    dof rx
    limits (-10.0 170.0)
  end
  begin
     id 20
     name lwrist
     direction 1 -4.4896e-011 2.56952e-028   
     length 1.56673   
     axis -5.12785e-016 90 90   XYZ
    dof ry
    limits (-180.0 0.0)
 end
  begin
     id 21 
     name lhand
     direction 1 -4.48934e-011 5.13905e-028   
     length 0.713374   
     axis -3.27915e-016 90 90   XYZ
    dof rx rz
    limits (-90.0 90.0)
           (-45.0 45.0)
  end
  begin
     id 22 
     name lfingers
     direction 1 -4.48973e-011 1.02781e-027   
     length 0.575141   
     axis -6.5583e-016 90 90   XYZ
    dof rx
    limits (0.0 90.0)
  end
  begin
     id 23
     name lthumb
     direction 0.707107 -6.34883e-011 0.707107   
     length 0.82579   
     axis -90 45 2.85299e-015   XYZ
    dof rx rz
    limits (-45.0 45.0)
           (-45.0 45.0)
  end
  begin
     id 24 
     name rclavicle
     direction -0.936895 0.34884 0.0232243   
     length 3.53304  
     axis 0 0 0   XYZ 
    dof ry rz
    limits (-10.0 20.0)
           (-20.0 0.0)
  end
  begin
     id 25 
     name rhumerus
     direction -1 -4.48965e-011 1.05514e-027  
     length 5.4685   
     axis 180 30 90   XYZ
    dof rx ry rz
    limits (-90.0 60.0)
           (-90.0 90.0)
           (-90.0 90.0)
  end
  begin
     id 26 
     name rradius
     direction -1 -4.48964e-011 -1.1079e-027   
     length 3.22411   
     axis 180 30 90   XYZ
    dof rx
    limits (-10.0 170.0)
  end
  begin
     id 27 
     name rwrist
     direction -1 -4.48973e-011 2.56952e-028   
     length 1.61206   
     axis -5.12785e-016 -90 -90   XYZ
    dof ry
    limits (-180.0 0.0)
  end
  begin
     id 28
     name rhand
     direction -1 -4.48957e-011 5.13905e-028   
     length 0.74528   
     axis -3.27915e-016 -90 -90   XYZ
    dof rx rz
    limits (-90.0 90.0)
           (-45.0 45.0)
  end
  begin
     id 29
     name rfingers
     direction -1 -4.4901e-011 1.02781e-027   
     length 0.600864   
     axis -6.5583e-016 -90 -90   XYZ
    dof rx
    limits (0.0 90.0)
  end
  begin
     id 30
     name rthumb
     direction -0.707107 -6.34972e-011 0.707107   
     length 0.862724   
     axis -90 -45 -2.85299e-015   XYZ
    dof rx rz
    limits (-45.0 45.0)
           (-45.0 45.0)
  end
:hierarchy
  begin
    root lhipjoint rhipjoint lowerback
    lhipjoint lfemur
    lfemur ltibia
    ltibia lfoot
    lfoot ltoes
    rhipjoint rfemur
    rfemur rtibia
    rtibia rfoot
    rfoot rtoes
    lowerback upperback
    upperback thorax
    thorax lowerneck lclavicle rclavicle
    lowerneck upperneck
    upperneck head
    lclavicle lhumerus
    lhumerus lradius
    lradius lwrist
    lwrist lhand lthumb
    lhand lfingers
    rclavicle rhumerus
    rhumerus rradius
    rradius rwrist
    rwrist rhand rthumb
    rhand rfingers
  end

#!OML:ASF G:\Work\Work\Patient Classification 1\Liu\Session 1\Liu.ASF
:FULLY-SPECIFIED
:DEGREES
129
root 9.97972 16.771 -24.0596 2.95615 0.249167 -1.83267
lowerback 0.579571 -1.47923 1.79885
upperback 0.78557 -1.97151 1.01614
thorax 0.454628 -0.979296 0.0364675
lowerneck -16.6098 -8.08458 -15.6716
upperneck 23.3881 -9.1432 8.00111
head 11.5092 -4.63053 4.12465
rclavicle -1.58779e-014 1.26228e-014
rhumerus -43.8063 14.7297 -89.7171
rradius 38.9879
rwrist -8.05021
rhand -12.6111 14.1436
rfingers 7.12502
rthumb 13.4681 -15.4009
lclavicle -1.58779e-014 1.26228e-014
lhumerus -33.4547 -4.90635 87.5007
lradius 26.9718
lwrist -4.45331
lhand -13.1844 31.0435
lfingers 7.12502
lthumb 12.9154 60.6238
rfemur -17.9636 2.37447 26.4919
rtibia 28.041
rfoot -12.5159 -1.33802
rtoes -16.6042
lfemur -19.7232 11.4121 -18.4355
ltibia 75.8777
lfoot -5.76727 15.975
ltoes 4.73846
130
root 9.97077 16.7786 -23.9125 2.99407 -0.0375093 -1.82725
lowerback 0.568786 -1.26554 1.85774
upperback 0.862287 -1.68804 0.953733
thorax 0.539175 -0.836147 -0.0624893
lowerneck -16.9932 -7.8224 -15.4656
upperneck 23.7149 -8.80722 8.09468
head 11.6539 -4.44577 4.18332
rclavicle 2.23881e-014 -1.93815e-014
rhumerus -43.5815 14.6973 -89.6185
rradius 39.3036
rwrist -7.93785
rhand -12.6415 14.1993
rfingers 7.12502
rthumb 13.4388 -15.3471
lclavicle 2.23881e-014 -1.93815e-014
lhumerus -33.7335 -5.4206 87.7133
lradius 27.0203
lwrist -4.28717
lhand -13.3768 30.9219
lfingers 7.12502
lthumb 12.73 60.5138
rfemur -17.2866 2.57837 26.5793
rtibia 27.828
rfoot -12.7896 -1.39147
rtoes -17.6329
lfemur -21.5026 11.2514 -18.7961
ltibia 76.9497
lfoot -6.40192 15.6126
ltoes 3.55873
131
root 9.95861 16.7842 -23.7723 2.96332 -0.376221 -2.00111
lowerback 0.917628 -1.02397 2.12135
upperback 0.790507 -1.35335 0.884935
thorax 0.267449 -0.669749 -0.273186
lowerneck -17.5218 -7.68106 -15.1307
upperneck 24.3545 -8.63737 8.03311
head 11.9582 -4.34363 4.13607
rclavicle -5.65294e-015 8.54774e-015
rhumerus -43.6409 14.6542 -89.6965
rradius 39.6953
rwrist -8.22355
rhand -12.0496 13.262
rfingers 7.12502
rthumb 14.0092 -16.246
lclavicle -5.65294e-015 8.54774e-015
lhumerus -34.2178 -5.91973 87.8266
lradius 27.0337
lwrist -3.87554
lhand -13.3676 30.8231
lfingers 7.12502
lthumb 12.7388 60.4145
rfemur -16.5423 3.00162 26.8773
rtibia 27.5592
rfoot -12.9484 -1.60697
rtoes -19.1504
lfemur -23.1952 11.1662 -18.8713
ltibia 77.8535
lfoot -7.46068 15.044
ltoes 3.96405
132
root 9.95325 16.7849 -23.6297 2.9933 -0.874792 -2.12787
lowerback 1.08022 -0.746723 2.38392
upperback 0.823117 -0.977431 0.793525
thorax 0.211544 -0.480812 -0.514466
lowerneck -17.1123 -7.59733 -14.9743
upperneck 24.0605 -8.67107 8.23639
head 11.7682 -4.32614 4.18689
rclavicle 3.48494e-015 -1.76421e-014
rhumerus -43.3057 14.6204 -89.665
rradius 40.0441
rwrist -9.07272
rhand -11.2484 11.8473
rfingers 7.12502
rthumb 14.7812 -17.6056
lclavicle 3.48494e-015 -1.76421e-014
lhumerus -34.4044 -6.18258 87.8106
lradius 27.0637
lwrist -3.66303
lhand -13.0033 31.1171
lfingers 7.12502
lthumb 13.09 60.6863
rfemur -15.9076 3.29916 27.0948
rtibia 27.3206
rfoot -13.0981 -1.494
rtoes -20.1193
lfemur -24.9205 11.2532 -19.081
ltibia 78.5275
lfoot -8.03977 14.755
ltoes 1.73585
133
root 9.95152 16.7762 -23.4811 3.08381 -1.14762 -2.07395
lowerback 0.982208 -0.601102 2.40851
upperback 0.89513 -0.787787 0.752584
thorax 0.344353 -0.383979 -0.573591
lowerneck -17.9682 -7.4326 -14.2654
upperneck 24.74 -8.35227 7.5419
head 12.0852 -4.18912 3.85468
rclavicle -4.28008e-015 2.33572e-015
rhumerus -42.8753 15.0341 -89.629
rradius 40.093
rwrist -9.05828
rhand -11.8495 12.339
rfingers 7.12502
rthumb 14.202 -17.1555
lclavicle -4.28008e-015 2.33572e-015
lhumerus -34.6284 -6.09017 87.8009
lradius 27.308
lwrist -3.78483
lhand -12.3628 31.7272
lfingers 7.12502
lthumb 13.7074 61.2557
rfemur -15.1335 3.09993 27.1493
rtibia 27.2078
rfoot -13.714 -1.28349
rtoes -21.5727
lfemur -26.7298 11.0685 -19.5503
ltibia 79.0012
lfoot -7.9063 15.0532
ltoes -1.59433
